
<svg width="24" height="24" viewBox="0 0 24 24" fill="none" xmlns="http://www.w3.org/2000/svg">
  <rect width="24" height="24" rx="6" fill="#8B5CF6"/>
  <path d="M7 17.25C6.59 17.25 6.24 17.11 5.94 16.82C5.65 16.52 5.5 16.17 5.5 15.75V7.25C5.5 6.84 5.65 6.49 5.94 6.19C6.24 5.9 6.59 5.75 7 5.75H17C17.41 5.75 17.76 5.9 18.06 6.19C18.35 6.49 18.5 6.84 18.5 7.25V15.75C18.5 16.17 18.35 16.52 18.06 16.82C17.76 17.11 17.41 17.25 17 17.25H7ZM12 14.25L17 11V7.25H7V11L12 14.25ZM12 13L7 10V15.75H17V10L12 13ZM12 13L7 10V15.75V10L12 13Z" fill="white"/>
</svg>
